<?xml version="1.0" ?><!DOCTYPE svg  PUBLIC '-//W3C//DTD SVG 1.1//EN'  'http://www.w3.org/Graphics/SVG/1.1/DTD/svg11.dtd'><svg enable-background="new 0 0 100 100" height="100px" id="Layer_1" version="1.1" viewBox="0 0 100 100" width="100px" xml:space="preserve" xmlns="http://www.w3.org/2000/svg" xmlns:xlink="http://www.w3.org/1999/xlink"><g><circle cx="49.999" cy="50" fill="#FFC830" r="46.338"/><path d="M49.997,96.336c25.596,0,46.342-20.744,46.342-46.335H3.661C3.661,75.592,24.407,96.336,49.997,96.336z" fill="#EFB31D"/><path d="M87.066,42.947H63.898c0-1.176,0.953-2.129,2.129-2.129c0.398,0,0.77,0.118,1.086,0.308   c0.875-1.359,2.393-2.259,4.123-2.259c0.092,0,0.18,0.019,0.27,0.025c0.771-2.57,3.156-4.445,5.98-4.445   c3.086,0,5.645,2.241,6.152,5.181c0.035,0,0.064-0.011,0.098-0.011C85.576,39.617,87.066,41.108,87.066,42.947z" fill="#FFDF99"/><path d="M19.886,31.086h35.313c0-1.652-1.334-2.99-2.982-2.998c-0.355-1.666-1.78-2.918-3.522-3.039   c-0.51-1.687-1.832-3-3.52-3.498c0.082-0.478,0.135-0.965,0.135-1.465c0-4.695-3.807-8.5-8.5-8.5c-4.697,0-8.502,3.805-8.502,8.5   c0,0.592,0.063,1.17,0.178,1.731c-3.11,0.343-5.586,2.771-6.01,5.854C20.984,28.102,19.89,29.458,19.886,31.086z" fill="#FFDF99"/></g><path d="M83.541,71.255c-0.973-1.062-1.842-2.046-2.643-2.955c-4.686-5.307-7.523-8.516-15.051-8.542  c0.439-0.809,0.689-1.733,0.689-2.716c0-0.189-0.019-0.376-0.037-0.563h1.26c6.068,0,11.004-4.937,11.004-11.004  c0-5.321-3.576-10.056-6.731-14.232l-0.534-0.709c-1.211-1.608-3.236-4.3-6.113-4.3c-2.867,0-5.201,2.334-5.201,5.202v1.18h-0.436  c-0.828,0-1.5,0.672-1.5,1.5s0.672,1.5,1.5,1.5h0.436v4.24h-5.632c-0.958-4.171-3.597-7.801-4.529-8.989  c-0.284-2.602-2.495-4.633-5.171-4.633c-2.868,0-5.201,2.334-5.201,5.202v1.18h-0.438c-0.828,0-1.5,0.672-1.5,1.5s0.672,1.5,1.5,1.5  h0.438v4.24h-5.633c-0.957-4.171-3.596-7.8-4.529-8.989c-0.284-2.602-2.494-4.633-5.17-4.633c-2.869,0-5.203,2.334-5.203,5.202  v18.625c0,3.539,2.879,6.418,6.418,6.418h0.801c-0.02,0.188-0.037,0.374-0.037,0.563c0,0.981,0.248,1.906,0.687,2.714h-6.368  c-0.828,0-1.5,0.672-1.5,1.5s0.672,1.5,1.5,1.5h2.691v9.512c0,0.828,0.671,1.5,1.5,1.5c0.828,0,1.5-0.672,1.5-1.5v-9.512h11.406  v9.512c0,0.828,0.672,1.5,1.5,1.5c0.829,0,1.5-0.672,1.5-1.5v-9.512h11.406v9.512c0,0.828,0.672,1.5,1.5,1.5  c0.829,0,1.5-0.672,1.5-1.5v-9.512H65.76c0.268,0,0.516,0.01,0.768,0.018v9.494c0,0.828,0.671,1.5,1.5,1.5  c0.828,0,1.5-0.672,1.5-1.5v-9.131c3.532,0.83,5.522,3.072,9.121,7.148c0.813,0.921,1.694,1.92,2.68,2.995  c0.295,0.323,0.7,0.487,1.106,0.487c0.362,0,0.725-0.13,1.013-0.394C84.059,72.814,84.1,71.866,83.541,71.255z M63.537,57.042  c0,1.496-1.219,2.714-2.715,2.714s-2.713-1.218-2.713-2.714c0-0.188,0.033-0.377,0.077-0.563h5.272  C63.503,56.665,63.537,56.854,63.537,57.042z M37.036,59.756c0.438-0.808,0.687-1.732,0.687-2.714c0-0.189-0.018-0.376-0.037-0.563  h17.461c-0.02,0.188-0.037,0.374-0.037,0.563c0,0.981,0.248,1.906,0.687,2.714H37.036z M24.318,29.233  c1.213,0,2.201,0.988,2.201,2.202c0,0.355,0.127,0.7,0.356,0.972c0.038,0.044,3.778,4.5,4.407,9.149  c0.1,0.744,0.735,1.299,1.486,1.299h8.381c0.828,0,1.5-0.672,1.5-1.5v-9.92c0-1.214,0.987-2.202,2.201-2.202  c1.215,0,2.201,0.988,2.201,2.202c0,0.356,0.127,0.701,0.358,0.973c0.038,0.044,3.772,4.478,4.405,9.148  c0.102,0.744,0.736,1.299,1.486,1.299h8.381c0.829,0,1.5-0.672,1.5-1.5v-9.92c0-1.214,0.988-2.202,2.201-2.202  c1.38,0,2.842,1.943,3.716,3.104l0.538,0.714c2.678,3.545,5.688,7.532,6.08,11.555H22.115v-13.17  C22.115,30.222,23.104,29.233,24.318,29.233z M22.115,50.061v-2.455h53.352c-0.936,3.381-4.031,5.873-7.707,5.873H25.533  C23.648,53.479,22.115,51.945,22.115,50.061z M29.297,57.042c0-0.188,0.033-0.377,0.077-0.563h5.271  c0.044,0.187,0.077,0.375,0.077,0.563c0,1.496-1.217,2.714-2.713,2.714S29.297,58.538,29.297,57.042z"/><g><path d="M69.64,33.051l-0.539-0.714c-0.873-1.16-2.336-3.104-3.715-3.104c-1.213,0-2.201,0.988-2.201,2.202v9.92   c0,0.828-0.672,1.5-1.5,1.5h-8.381c-0.75,0-1.385-0.555-1.486-1.299c-0.633-4.671-4.367-9.104-4.406-9.148   c-0.23-0.271-0.357-0.616-0.357-0.973c0-1.214-0.986-2.202-2.201-2.202s-2.201,0.988-2.201,2.202v9.92c0,0.828-0.672,1.5-1.5,1.5   h-8.381c-0.752,0-1.387-0.555-1.486-1.299c-0.629-4.649-4.37-9.105-4.408-9.149c-0.229-0.271-0.356-0.616-0.356-0.972   c0-1.214-0.988-2.202-2.201-2.202c-1.215,0-2.203,0.988-2.203,2.202v13.17H75.72C75.327,40.583,72.317,36.596,69.64,33.051z" fill="#FFD86F"/><path d="M29.375,56.479c-0.044,0.187-0.077,0.375-0.077,0.563c0,1.496,1.217,2.714,2.713,2.714   c1.496,0,2.713-1.218,2.713-2.714c0-0.188-0.033-0.377-0.078-0.563H29.375z" fill="#A87B14"/><path d="M58.187,56.479c-0.043,0.187-0.076,0.375-0.076,0.563c0,1.496,1.217,2.714,2.713,2.714   s2.715-1.218,2.715-2.714c0-0.188-0.035-0.377-0.078-0.563H58.187z" fill="#A87B14"/><path d="M75.468,47.605H22.115v2.455c0,1.885,1.533,3.418,3.418,3.418h42.228   C71.437,53.479,74.532,50.986,75.468,47.605z" fill="#CDA128"/></g></svg>